<svg xmlns="http://www.w3.org/2000/svg" xmlns:v="https://svgstorm.com"
viewBox = "0 0 220 400"
width="220"
height="400">
<g fill="None" fill-opacity="0.0" stroke="#FFFFFF" stroke-opacity="0.0" stroke-width="0.3"><path d="
M 0.00 400.00 
L 220.00 400.00
L 220.00 0.00
L 0.00 0.00
L 0.00 400.00
M 118.00 248.00 
C 130.85 198.71 146.19 150.07 160.00 101.00
C 174.33 101.00 188.67 101.00 203.00 101.00
C 199.29 108.99 195.33 116.68 191.69 124.69 C 188.06 132.71 184.17 140.26 180.23 148.23 C 176.29 156.20 173.12 165.12 169.07 173.07 C 165.03 181.03 161.56 188.62 157.69 196.69 C 153.83 204.77 150.04 212.94 146.08 221.08 C 142.11 229.21 138.93 236.44 134.69 244.70 C 130.46 252.95 128.06 260.76 123.22 269.22 C 118.39 277.69 119.97 287.71 121.00 298.00 C 122.03 308.29 122.10 322.52 122.00 333.00 C 121.90 343.48 120.72 355.03 118.22 364.22 C 115.72 373.41 113.26 382.76 102.93 384.93 C 92.60 387.09 86.02 377.40 85.22 367.78 C 84.42 358.16 85.93 344.35 87.99 334.99 C 90.05 325.64 93.15 316.98 95.98 307.98 C 98.80 298.97 103.93 291.72 106.77 282.77 C 109.61 273.82 104.78 262.61 104.00 253.00 C 103.22 243.38 99.10 232.74 98.02 222.98 C 96.95 213.21 94.12 203.45 92.07 193.93 C 90.02 184.41 87.88 174.17 85.02 164.98 C 82.17 155.78 79.31 149.00 74.25 140.75 C 69.18 132.50 59.84 128.13 50.00 129.00 C 40.16 129.87 34.97 136.32 30.08 144.08 C 25.18 151.83 29.44 169.14 18.00 168.00
C 17.74 142.58 22.31 101.05 55.01 99.01 C 87.71 96.96 97.29 130.53 102.93 157.07 C 108.56 183.62 113.56 220.68 118.00 248.00 Z"/>
</g>
<g fill="None" fill-opacity="0.0" stroke="#000000" stroke-opacity="1.00" stroke-width="0.3"><path d="
M 118.00 248.00 
C 113.56 220.68 108.56 183.62 102.93 157.07 C 97.29 130.53 87.71 96.96 55.01 99.01 C 22.31 101.05 17.74 142.58 18.00 168.00
C 29.44 169.14 25.18 151.83 30.08 144.08 C 34.97 136.32 40.16 129.87 50.00 129.00 C 59.84 128.13 69.18 132.50 74.25 140.75 C 79.31 149.00 82.17 155.78 85.02 164.98 C 87.88 174.17 90.02 184.41 92.07 193.93 C 94.12 203.45 96.95 213.21 98.02 222.98 C 99.10 232.74 103.22 243.38 104.00 253.00 C 104.78 262.61 109.61 273.82 106.77 282.77 C 103.93 291.72 98.80 298.97 95.98 307.98 C 93.15 316.98 90.05 325.64 87.99 334.99 C 85.93 344.35 84.42 358.16 85.22 367.78 C 86.02 377.40 92.60 387.09 102.93 384.93 C 113.26 382.76 115.72 373.41 118.22 364.22 C 120.72 355.03 121.90 343.48 122.00 333.00 C 122.10 322.52 122.03 308.29 121.00 298.00 C 119.97 287.71 118.39 277.69 123.22 269.22 C 128.06 260.76 130.46 252.95 134.69 244.70 C 138.93 236.44 142.11 229.21 146.08 221.08 C 150.04 212.94 153.83 204.77 157.69 196.69 C 161.56 188.62 165.03 181.03 169.07 173.07 C 173.12 165.12 176.29 156.20 180.23 148.23 C 184.17 140.26 188.06 132.71 191.69 124.69 C 195.33 116.68 199.29 108.99 203.00 101.00
C 188.67 101.00 174.33 101.00 160.00 101.00
C 146.19 150.07 130.85 198.71 118.00 248.00 Z"/>
</g>
<g fill="None" fill-opacity="1.00" stroke="None">
<path d="
M 0.00 400.00 
L 220.00 400.00
L 220.00 0.00
L 0.00 0.00
L 0.00 400.00
M 118.00 248.00 
C 130.85 198.71 146.19 150.07 160.00 101.00
C 174.33 101.00 188.67 101.00 203.00 101.00
C 199.29 108.99 195.33 116.68 191.69 124.69 C 188.06 132.71 184.17 140.26 180.23 148.23 C 176.29 156.20 173.12 165.12 169.07 173.07 C 165.03 181.03 161.56 188.62 157.69 196.69 C 153.83 204.77 150.04 212.94 146.08 221.08 C 142.11 229.21 138.93 236.44 134.69 244.70 C 130.46 252.95 128.06 260.76 123.22 269.22 C 118.39 277.69 119.97 287.71 121.00 298.00 C 122.03 308.29 122.10 322.52 122.00 333.00 C 121.90 343.48 120.72 355.03 118.22 364.22 C 115.72 373.41 113.26 382.76 102.93 384.93 C 92.60 387.09 86.02 377.40 85.22 367.78 C 84.42 358.16 85.93 344.35 87.99 334.99 C 90.05 325.64 93.15 316.98 95.98 307.98 C 98.80 298.97 103.93 291.72 106.77 282.77 C 109.61 273.82 104.78 262.61 104.00 253.00 C 103.22 243.38 99.10 232.74 98.02 222.98 C 96.95 213.21 94.12 203.45 92.07 193.93 C 90.02 184.41 87.88 174.17 85.02 164.98 C 82.17 155.78 79.31 149.00 74.25 140.75 C 69.18 132.50 59.84 128.13 50.00 129.00 C 40.16 129.87 34.97 136.32 30.08 144.08 C 25.18 151.83 29.44 169.14 18.00 168.00
C 17.74 142.58 22.31 101.05 55.01 99.01 C 87.71 96.96 97.29 130.53 102.93 157.07 C 108.56 183.62 113.56 220.68 118.00 248.00 Z"/>
</g>
<g fill="rgb(127, 29, 29)" fill-opacity="1.00" stroke="None">
<path d="
M 118.00 248.00 
C 113.56 220.68 108.56 183.62 102.93 157.07 C 97.29 130.53 87.71 96.96 55.01 99.01 C 22.31 101.05 17.74 142.58 18.00 168.00
C 29.44 169.14 25.18 151.83 30.08 144.08 C 34.97 136.32 40.16 129.87 50.00 129.00 C 59.84 128.13 69.18 132.50 74.25 140.75 C 79.31 149.00 82.17 155.78 85.02 164.98 C 87.88 174.17 90.02 184.41 92.07 193.93 C 94.12 203.45 96.95 213.21 98.02 222.98 C 99.10 232.74 103.22 243.38 104.00 253.00 C 104.78 262.61 109.61 273.82 106.77 282.77 C 103.93 291.72 98.80 298.97 95.98 307.98 C 93.15 316.98 90.05 325.64 87.99 334.99 C 85.93 344.35 84.42 358.16 85.22 367.78 C 86.02 377.40 92.60 387.09 102.93 384.93 C 113.26 382.76 115.72 373.41 118.22 364.22 C 120.72 355.03 121.90 343.48 122.00 333.00 C 122.10 322.52 122.03 308.29 121.00 298.00 C 119.97 287.71 118.39 277.69 123.22 269.22 C 128.06 260.76 130.46 252.95 134.69 244.70 C 138.93 236.44 142.11 229.21 146.08 221.08 C 150.04 212.94 153.83 204.77 157.69 196.69 C 161.56 188.62 165.03 181.03 169.07 173.07 C 173.12 165.12 176.29 156.20 180.23 148.23 C 184.17 140.26 188.06 132.71 191.69 124.69 C 195.33 116.68 199.29 108.99 203.00 101.00
C 188.67 101.00 174.33 101.00 160.00 101.00
C 146.19 150.07 130.85 198.71 118.00 248.00 Z"/>
</g>
</svg>